<svg width="15" height="15" viewBox="0 0 15 15" fill="none" xmlns="http://www.w3.org/2000/svg">
<path fill-rule="evenodd" clip-rule="evenodd" d="M5 3.75H3.75V3.125H2.5V5H12.5V3.125H11.25V3.75H10V3.125H5V3.75ZM2.5 12.5V6.25H12.5V12.5H2.5ZM10 1.875H5V1.25H3.75V1.875H2.5C1.80964 1.875 1.25 2.43464 1.25 3.125V12.5C1.25 13.1904 1.80964 13.75 2.5 13.75H12.5C13.1904 13.75 13.75 13.1904 13.75 12.5V3.125C13.75 2.43464 13.1904 1.875 12.5 1.875H11.25V1.25H10V1.875ZM9.55806 7.05806L6.875 9.74112L5.44194 8.30806L4.55806 9.19194L6.875 11.5089L10.4419 7.94194L9.55806 7.05806Z" fill="#00823E"/>
</svg>

