<svg width="50" height="50" viewBox="0 0 50 50" fill="none" xmlns="http://www.w3.org/2000/svg">
<path fill-rule="evenodd" clip-rule="evenodd" d="M25 50C38.8071 50 50 38.8071 50 25C50 11.1929 38.8071 0 25 0C11.1929 0 0 11.1929 0 25C0 38.8071 11.1929 50 25 50Z" fill="#FFF1B6"/>
<rect x="11.3635" y="11.3636" width="27.2727" height="27.2727" fill="white" fill-opacity="0.01"/>
<path d="M24.9994 13.6363C29.3925 13.6363 32.9536 17.1976 32.9537 21.5907C32.9537 23.7618 32.3019 25.3689 31.0292 27.0996C30.8414 27.3548 30.2554 28.1118 30.1993 28.1864C29.9422 28.5285 29.7823 28.7713 29.6784 28.9819C29.5845 29.1725 29.545 29.3197 29.545 29.4489V31.8178C29.545 34.3282 27.5098 36.3634 24.9994 36.3634C22.4891 36.3633 20.4538 34.3281 20.4538 31.8178V29.4489C20.4538 29.227 20.3756 28.9848 20.1899 28.6661C20.0706 28.4613 19.9143 28.236 19.6789 27.9245C19.646 27.8811 19.1339 27.2154 18.9726 26.9975C17.6888 25.2635 17.0451 23.7154 17.0451 21.5907C17.0452 17.1977 20.6064 13.6364 24.9994 13.6363ZM27.2722 31.4323C26.5533 31.6875 25.7943 31.8178 24.9994 31.8178C24.2044 31.8178 23.4455 31.6876 22.7266 31.4323V31.8178C22.7266 33.0729 23.7443 34.0905 24.9994 34.0906C26.2546 34.0906 27.2722 33.073 27.2722 31.8178V31.4323ZM24.9994 15.9091C21.8616 15.9093 19.318 18.4529 19.3179 21.5907C19.3179 23.1572 19.7797 24.269 20.7991 25.6458C20.9457 25.8438 21.451 26.4992 21.4926 26.5542C21.7781 26.9319 21.9797 27.2235 22.1537 27.5223C22.4235 27.9855 22.601 28.4374 22.6795 28.9054C23.389 29.3325 24.1543 29.5449 24.9994 29.545C25.8457 29.545 26.6119 29.3317 27.3222 28.9035C27.3804 28.5909 27.4883 28.2842 27.6401 27.9765C27.8194 27.613 28.0478 27.2664 28.3826 26.821C28.4548 26.725 29.03 25.9818 29.1978 25.7537C30.2076 24.3807 30.6819 23.2133 30.6819 21.5907C30.6818 18.4528 28.1373 15.9091 24.9994 15.9091Z" fill="#F5A623"/>
<mask id="mask0_51_91" style="mask-type:luminance" maskUnits="userSpaceOnUse" x="17" y="13" width="16" height="24">
<path d="M24.9994 13.6363C29.3925 13.6363 32.9536 17.1976 32.9537 21.5907C32.9537 23.7618 32.3019 25.3689 31.0292 27.0996C30.8414 27.3548 30.2554 28.1118 30.1993 28.1864C29.9422 28.5285 29.7823 28.7713 29.6784 28.9819C29.5845 29.1725 29.545 29.3197 29.545 29.4489V31.8178C29.545 34.3282 27.5098 36.3634 24.9994 36.3634C22.4891 36.3633 20.4538 34.3281 20.4538 31.8178V29.4489C20.4538 29.227 20.3756 28.9848 20.1899 28.6661C20.0706 28.4613 19.9143 28.236 19.6789 27.9245C19.646 27.8811 19.1339 27.2154 18.9726 26.9975C17.6888 25.2635 17.0451 23.7154 17.0451 21.5907C17.0452 17.1977 20.6064 13.6364 24.9994 13.6363ZM27.2722 31.4323C26.5533 31.6875 25.7943 31.8178 24.9994 31.8178C24.2044 31.8178 23.4455 31.6876 22.7266 31.4323V31.8178C22.7266 33.0729 23.7443 34.0905 24.9994 34.0906C26.2546 34.0906 27.2722 33.073 27.2722 31.8178V31.4323ZM24.9994 15.9091C21.8616 15.9093 19.318 18.4529 19.3179 21.5907C19.3179 23.1572 19.7797 24.269 20.7991 25.6458C20.9457 25.8438 21.451 26.4992 21.4926 26.5542C21.7781 26.9319 21.9797 27.2235 22.1537 27.5223C22.4235 27.9855 22.601 28.4374 22.6795 28.9054C23.389 29.3325 24.1543 29.5449 24.9994 29.545C25.8457 29.545 26.6119 29.3317 27.3222 28.9035C27.3804 28.5909 27.4883 28.2842 27.6401 27.9765C27.8194 27.613 28.0478 27.2664 28.3826 26.821C28.4548 26.725 29.03 25.9818 29.1978 25.7537C30.2076 24.3807 30.6819 23.2133 30.6819 21.5907C30.6818 18.4528 28.1373 15.9091 24.9994 15.9091Z" fill="white"/>
</mask>
<g mask="url(#mask0_51_91)">
</g>
</svg>
